<svg id="Layer_1" data-name="Layer 1" xmlns="http://www.w3.org/2000/svg" viewBox="0 0 61.58 61.65"><defs><style>.cls-1{fill:#4281a4;}.cls-2,.cls-3{fill:none;stroke:#e4dfda;stroke-miterlimit:10;}.cls-2{stroke-width:6px;}.cls-3{stroke-width:10px;}.cls-4{fill:#e4dfda;}</style></defs><title>Timeline</title><ellipse class="cls-1" cx="30.51" cy="30.65" rx="30.79" ry="30.83" transform="translate(0.09 0.36) rotate(-0.35)"/><line class="cls-2" x1="50.25" y1="29.3" x2="11.42" y2="29.54"/><line class="cls-3" x1="41.5" y1="29.5" x2="41.55" y2="37.81"/><line class="cls-3" x1="20.64" y1="29.55" x2="20.69" y2="37.86"/><line class="cls-3" x1="30.78" y1="21.57" x2="30.83" y2="29.87"/><ellipse class="cls-4" cx="30.44" cy="18.89" rx="4.45" ry="4.48" transform="translate(0.16 0.36) rotate(-0.35)"/><polygon class="cls-4" points="56.06 29.41 50.21 23.5 50.29 35.39 56.06 29.41"/><polygon class="cls-4" points="5.95 30.02 11.79 35.94 11.72 24.05 5.95 30.02"/><ellipse class="cls-4" cx="41.28" cy="39.68" rx="4.45" ry="4.48" transform="translate(0.04 0.43) rotate(-0.35)"/><ellipse class="cls-4" cx="20.42" cy="39.96" rx="4.45" ry="4.48" transform="translate(0.03 0.3) rotate(-0.35)"/></svg>