<?xml version="1.0" encoding="utf-8"?>
<!-- Generator: Adobe Illustrator 24.0.1, SVG Export Plug-In . SVG Version: 6.00 Build 0)  -->
<svg version="1.1" id="Layer_1" xmlns="http://www.w3.org/2000/svg" xmlns:xlink="http://www.w3.org/1999/xlink" x="0px" y="0px"
	 viewBox="0 0 61.3 61.3" style="enable-background:new 0 0 61.3 61.3;" xml:space="preserve">
<style type="text/css">
	.st0{fill:#4281A4;}
	.st1{fill:none;stroke:#E4DFDA;stroke-width:6;stroke-miterlimit:10;}
	.st2{fill:none;stroke:#E4DFDA;stroke-width:5;stroke-miterlimit:10;}
	.st3{fill:#E4DFDA;}
</style>
<title>Timeline</title>
<ellipse transform="matrix(1 -6.186884e-03 6.186884e-03 1 -0.1891 0.1894)" class="st0" cx="30.5" cy="30.7" rx="38.5" ry="38.5"/>
<line class="st1" x1="54.8" y1="28.7" x2="6.3" y2="29"/>
<line class="st2" x1="43.9" y1="29" x2="44" y2="39.4"/>
<line class="st2" x1="17.8" y1="29.1" x2="17.9" y2="39.4"/>
<line class="st2" x1="30.5" y1="19.1" x2="30.6" y2="29.5"/>
<ellipse transform="matrix(1 -6.174122e-03 6.174122e-03 1 -9.786075e-02 0.1881)" class="st3" cx="30.4" cy="15.9" rx="5.6" ry="5.6"/>
<polygon class="st3" points="62.1,28.9 54.8,21.5 54.9,36.4 "/>
<polygon class="st3" points="-0.5,29.7 6.8,37 6.7,22.2 "/>
<ellipse transform="matrix(1 -6.183693e-03 6.183693e-03 1 -0.2585 0.2728)" class="st3" cx="44" cy="41.9" rx="5.6" ry="5.6"/>
<ellipse transform="matrix(1 -6.183693e-03 6.183693e-03 1 -0.2611 0.1115)" class="st3" cx="17.9" cy="42.3" rx="5.6" ry="5.6"/>
</svg>
