<svg id="Layer_1" data-name="Layer 1" xmlns="http://www.w3.org/2000/svg" viewBox="0 0 61.3 61.3"><defs><style>.cls-1{fill:#4281a4;}.cls-2{fill:#6dc7be;}.cls-3{fill:#e4dfda;}</style></defs><title>Projects</title><circle class="cls-1" cx="30.65" cy="30.65" r="30.65"/><ellipse class="cls-2" cx="32" cy="32.66" rx="1.83" ry="2.01"/><path class="cls-3" d="M653.58,523.93h-.31l-.11-.07a1.21,1.21,0,0,1-.26-.2c0-.94-.76-1.52-1.35-2.18a.65.65,0,0,0-.33-.43.8.8,0,0,0-.18-.41L649.68,519c-.4-.48-.68-1-1.07-1.53a7.87,7.87,0,0,1-.6-.68c-.15-.26-.3-.54-.43-.82a2,2,0,0,0-.66-.75v-6.44a7.55,7.55,0,0,1,1.39-2.41c.58-.83,1.16-1.66,1.75-2.47,1.08-1.5,2.21-2.95,3.37-4.37h.15a2,2,0,1,0-1.82-2.24l-.46.48-.46.33a1,1,0,0,0-.2.22,1.09,1.09,0,0,0-.23.14c-1.08,1-2.15,2.05-3.25,3a24.25,24.25,0,0,1-2.86,2.18,8.19,8.19,0,0,1-2.35.43c-.68.07-1.38.18-2.08.23H638.3a4.34,4.34,0,0,1-1.45-.39,19.92,19.92,0,0,1-3.68-2.44,2.9,2.9,0,0,0-.67-.53h-.09l-1.89-1.45-.51-.39h0a8.93,8.93,0,0,1-1.44-1.31l-.12-.12v-.08a1.84,1.84,0,1,0-1.84,2,1.44,1.44,0,0,0,.51-.08,1.05,1.05,0,0,0,.13.26q3.12,4.14,5.92,8.49v6.2a.92.92,0,0,0-.07.36,1.75,1.75,0,0,1-.06.56c-.64,1-1.33,1.92-2,2.87l-1,1.45-.1.09a3,3,0,0,0-.53.8c-.32.48-.66.95-1,1.41l-.06.06a2.21,2.21,0,0,0-.28.4l-.45.59a.77.77,0,0,0-.17.38,2.37,2.37,0,0,1-.5.32,1,1,0,0,0-.25.21h-.06a2,2,0,1,0,1.84,2.16V526a10.23,10.23,0,0,1,2.11-1.77,2.71,2.71,0,0,0,.87-.78c.2-.15.38-.3.57-.46a2,2,0,0,0,.35-.3l.31-.28.21-.18a1.84,1.84,0,0,0,.59-.48l.08-.1,1.39-1.2a8,8,0,0,0,1.68-.83,3.21,3.21,0,0,1,.82-.43h6.25l.09.09a46,46,0,0,0,5.66,4.29l2.42,2.15a1.31,1.31,0,0,0,0,.28,1.84,1.84,0,1,0,1.83-2Z" transform="translate(-609.46 -481.37)"/><ellipse class="cls-3" cx="623.8" cy="500.27" rx="4.38" ry="0.72" transform="translate(-775.33 144.7) rotate(-47.78)"/><ellipse class="cls-3" cx="629.34" cy="494.52" rx="4.38" ry="0.72" transform="translate(-769.26 146.92) rotate(-47.78)"/><ellipse class="cls-3" cx="656.56" cy="500.24" rx="0.72" ry="4.38" transform="translate(-775.28 89.6) rotate(-42.22)"/><ellipse class="cls-3" cx="651.04" cy="494.48" rx="0.72" ry="4.38" transform="translate(-772.85 84.4) rotate(-42.22)"/><ellipse class="cls-3" cx="623.78" cy="523.1" rx="0.72" ry="4.38" transform="translate(-799.15 73.51) rotate(-42.22)"/><ellipse class="cls-3" cx="629.33" cy="529.03" rx="0.73" ry="4.36" transform="translate(-799.48 115.44) rotate(-44.78)"/><ellipse class="cls-3" cx="651.04" cy="528.76" rx="4.36" ry="0.73" transform="translate(-792.88 131.82) rotate(-44.86)"/><ellipse class="cls-3" cx="656.58" cy="523.15" rx="4.38" ry="0.72" transform="translate(-781.52 176.48) rotate(-47.78)"/></svg>