<?xml version="1.0" encoding="utf-8"?>
<!-- Generator: Adobe Illustrator 24.0.1, SVG Export Plug-In . SVG Version: 6.00 Build 0)  -->
<svg version="1.1" id="Layer_1" xmlns="http://www.w3.org/2000/svg" xmlns:xlink="http://www.w3.org/1999/xlink" x="0px" y="0px"
	 viewBox="0 0 61.3 61.3" style="enable-background:new 0 0 61.3 61.3;" xml:space="preserve">
<style type="text/css">
	.st0{fill:#4281A4;}
	.st1{fill:#6DC7BE;}
	.st2{fill:#E4DFDA;}
</style>
<title>Projects</title>
<circle class="st0" cx="30.6" cy="30.6" r="38.3"/>
<ellipse class="st1" cx="32.3" cy="33.2" rx="2.3" ry="2.5"/>
<path class="st2" d="M47.5,45.5h-0.4L47,45.4c-0.1-0.1-0.2-0.2-0.3-0.3c0-1.2-1-1.9-1.7-2.7c-0.1-0.2-0.2-0.4-0.4-0.5
	c0-0.2-0.1-0.4-0.2-0.5l-1.7-2.1c-0.5-0.6-0.8-1.3-1.3-1.9c-0.3-0.3-0.5-0.6-0.7-0.8c-0.2-0.3-0.4-0.7-0.5-1
	c-0.2-0.4-0.5-0.7-0.8-0.9v-8.1c0.4-1.1,1-2.1,1.7-3c0.7-1,1.4-2.1,2.2-3.1c1.4-1.9,2.8-3.7,4.2-5.5h0.2c1.4,0.1,2.6-0.9,2.7-2.3
	c0.1-1.4-0.9-2.6-2.3-2.7c-1.3-0.1-2.5,0.9-2.7,2.2l-0.6,0.6l-0.6,0.4c-0.1,0.1-0.2,0.2-0.3,0.3c-0.1,0-0.2,0.1-0.3,0.2
	c-1.4,1.3-2.7,2.6-4.1,3.8c-1.1,1-2.3,1.9-3.6,2.7c-0.9,0.3-1.9,0.5-2.9,0.5c-0.8,0.1-1.7,0.2-2.6,0.3h-2c-0.6-0.1-1.2-0.2-1.8-0.5
	c-1.6-0.8-3.2-1.9-4.6-3.1c-0.2-0.3-0.5-0.5-0.8-0.7H21L18.7,15L18,14.5l0,0c-0.7-0.5-1.3-1-1.8-1.6l-0.1-0.1v-0.1
	c-0.1-1.3-1.2-2.2-2.5-2.1c-1.3,0.1-2.2,1.2-2.1,2.5c0.1,1.2,1.1,2.1,2.3,2.1c0.2,0,0.4,0,0.6-0.1c0,0.1,0.1,0.2,0.2,0.3
	c2.6,3.5,5.1,7,7.4,10.6v7.7c-0.1,0.1-0.1,0.3-0.1,0.4c0,0.2,0,0.5-0.1,0.7c-0.8,1.3-1.7,2.4-2.5,3.6l-1.3,1.8l-0.1,0.1
	c-0.3,0.3-0.5,0.6-0.7,1c-0.4,0.6-0.8,1.2-1.3,1.8l-0.1,0.1c-0.1,0.2-0.3,0.3-0.4,0.5L15,44.4c-0.1,0.1-0.2,0.3-0.2,0.5
	c-0.2,0.2-0.4,0.3-0.6,0.4c-0.1,0.1-0.2,0.2-0.3,0.3h-0.1c-1.4-0.1-2.6,0.9-2.7,2.3s0.9,2.6,2.3,2.7c1.4,0.1,2.6-0.9,2.7-2.3v-0.1
	c0.8-0.9,1.7-1.6,2.6-2.2c0.4-0.2,0.8-0.6,1.1-1c0.3-0.2,0.5-0.4,0.7-0.6c0.2-0.1,0.3-0.2,0.4-0.4l0.4-0.4l0.3-0.2
	c0.3-0.1,0.5-0.4,0.7-0.6l0.1-0.1l1.7-1.5c0.7-0.3,1.4-0.6,2.1-1c0.3-0.2,0.7-0.4,1-0.5h7.8l0.1,0.1c2.2,2,4.6,3.8,7.1,5.4l3,2.7
	c0,0.1,0,0.2,0,0.4c0.1,1.3,1.2,2.2,2.5,2.1c1.3-0.1,2.2-1.2,2.1-2.5c-0.1-1.2-1.1-2.1-2.3-2.1L47.5,45.5z"/>
<ellipse transform="matrix(0.672 -0.7406 0.7406 0.672 -8.46 12.8334)" class="st2" cx="10.3" cy="16" rx="5.5" ry="0.9"/>
<ellipse transform="matrix(0.672 -0.7406 0.7406 0.672 -0.8709 15.6005)" class="st2" cx="17.2" cy="8.8" rx="5.5" ry="0.9"/>
<ellipse transform="matrix(0.7406 -0.672 0.672 0.7406 2.5862 38.5441)" class="st2" cx="51.2" cy="15.9" rx="0.9" ry="5.5"/>
<ellipse transform="matrix(0.7406 -0.672 0.672 0.7406 5.6285 32.0336)" class="st2" cx="44.3" cy="8.7" rx="0.9" ry="5.5"/>
<ellipse transform="matrix(0.7406 -0.672 0.672 0.7406 -27.253 18.4215)" class="st2" cx="10.2" cy="44.5" rx="0.9" ry="5.5"/>
<ellipse transform="matrix(0.7098 -0.7044 0.7044 0.7098 -31.5848 27.1635)" class="st2" cx="17.2" cy="51.9" rx="0.9" ry="5.4"/>
<ellipse transform="matrix(0.7088 -0.7054 0.7054 0.7088 -23.4832 46.2695)" class="st2" cx="44.3" cy="51.6" rx="5.4" ry="0.9"/>
<ellipse transform="matrix(0.672 -0.7406 0.7406 0.672 -16.198 52.5609)" class="st2" cx="51.2" cy="44.6" rx="5.5" ry="0.9"/>
</svg>
