<svg id="Timeline" xmlns="http://www.w3.org/2000/svg" viewBox="0 0 81.75 81.75"><defs><style>.cls-1{fill:#6dc7be;}.cls-2{stroke:#f05a22;stroke-miterlimit:10;}.cls-3{fill:#f05a22;}</style></defs><title>Me</title><circle class="cls-1" cx="40.87" cy="40.87" r="40.87"/><path class="cls-2" d="M695.57,402.85c0-1.92,0-3.76.07-4.74h0c-.5,1.32-3.06,6.15-4.67,9.25H690c-1.21-2.4-3.86-7.78-4.44-9.26h0c.09,1.12.13,3.4.13,5.08v4.18h-1v-9.81h1.46c1.73,3.36,3.91,7.76,4.38,8.87h0c.28-.72,2.81-5.61,4.57-8.87h1.44v9.81h-1Z" transform="translate(-654.63 -343.13)"/><path class="cls-2" d="M707.86,402.54h-6.44v4.12h7.05l-.14.7h-7.88v-9.81h7.73v.7h-6.76v3.59h6.44Z" transform="translate(-654.63 -343.13)"/><path class="cls-3" d="M714.9,387.83a2.63,2.63,0,0,0-1.56-2.66,63.84,63.84,0,0,0-6.15-2.73c-1-.38-2-.76-2.94-1.16-.55-.23-1.1-.46-1.65-.71l-.28-.16c0-.94,0-1.87,0-2.81a2.85,2.85,0,0,0-.12-1l.33-.33a13.31,13.31,0,0,0,2.36-4.15c.18-.46.35-.94.52-1.42l.14-.11a3,3,0,0,0,1-3.68,39.32,39.32,0,0,0,.94-4.3c.44-2.9,0-6.68-2.47-8.83-1.18-1-2.46-1.15-3.91-1.56l0-.09-.23-.33a4,4,0,0,0-1.93-1.37c-6.6-2.33-13.26,3.08-13.86,9a20,20,0,0,0,.65,6.82,3.06,3.06,0,0,0-.47,1.93,3.11,3.11,0,0,0,.38,1.77,2.82,2.82,0,0,0,1.44,1.36c.53,1.84,1.26,3.62,2.81,4.6,0,.56,0,1.12-.05,1.68s.09,1.46.15,2.15c-.63,1.56-2.55,1.93-4.25,2.26a45.57,45.57,0,0,0-6.54,1.83,2.22,2.22,0,0,0-.38.18,2.85,2.85,0,0,0-1.91,1.14,3.14,3.14,0,0,0,.06,5.16c2.82,1.93,6.33,3,9.63,4a36.15,36.15,0,0,0,10.93,1.83c3.32-.05,6.09-1.08,9.21-1.91s5.93-1.51,7.72-4.31A2.6,2.6,0,0,0,714.9,387.83Z" transform="translate(-654.63 -343.13)"/><rect class="cls-1" x="17.47" y="45.39" width="45.45" height="8.66"/></svg>