<svg id="Layer_1" data-name="Layer 1" xmlns="http://www.w3.org/2000/svg" viewBox="0 0 61.3 61.3"><defs><style>.cls-1{fill:#6dc7be;}.cls-2{fill:#e4dfda;}</style></defs><title>Me</title><circle class="cls-1" cx="30.65" cy="30.65" r="30.65"/><path class="cls-2" d="M659.52,526.67A2.63,2.63,0,0,0,658,524a63.56,63.56,0,0,0-6.15-2.73c-1-.38-2-.76-2.94-1.16-.55-.23-1.1-.46-1.65-.71l-.28-.16v-2.81a2.81,2.81,0,0,0-.12-1l.33-.33a13.37,13.37,0,0,0,2.36-4.15c.18-.46.35-.94.52-1.42l.14-.11a3,3,0,0,0,1-3.68,42.25,42.25,0,0,0,.94-4.3c.44-2.9,0-6.68-2.47-8.83-1.18-1-2.46-1.15-3.91-1.56V491l-.23-.33a4,4,0,0,0-1.93-1.37c-6.6-2.33-13.26,3.08-13.86,9a19.88,19.88,0,0,0,.65,6.82,3,3,0,0,0-.47,1.93,3,3,0,0,0,.38,1.77,2.85,2.85,0,0,0,1.44,1.36c.53,1.84,1.26,3.62,2.81,4.6,0,.56,0,1.12,0,1.68a15.36,15.36,0,0,0,.15,2.15c-.63,1.56-2.55,1.93-4.25,2.26a45.94,45.94,0,0,0-6.54,1.83,2.22,2.22,0,0,0-.38.18,2.82,2.82,0,0,0-1.91,1.14,3.14,3.14,0,0,0,.06,5.16c2.82,1.93,6.33,3,9.63,4A36.2,36.2,0,0,0,642.16,535c3.32-.05,6.09-1.08,9.21-1.91s5.93-1.51,7.72-4.31A2.63,2.63,0,0,0,659.52,526.67Z" transform="translate(-609.46 -481.37)"/><rect class="cls-1" x="10.75" y="45.55" width="39.36" height="8.68"/></svg>