<?xml version="1.0" encoding="utf-8"?>
<!-- Generator: Adobe Illustrator 24.0.1, SVG Export Plug-In . SVG Version: 6.00 Build 0)  -->
<svg version="1.1" id="Layer_1" xmlns="http://www.w3.org/2000/svg" xmlns:xlink="http://www.w3.org/1999/xlink" x="0px" y="0px"
	 viewBox="0 0 61.3 61.3" style="enable-background:new 0 0 61.3 61.3;" xml:space="preserve">
<style type="text/css">
	.st0{fill:#48A9A6;enable-background:new    ;}
	.st1{fill:#E4DFDA;}
</style>
<title>Me</title>
<ellipse class="st0" cx="30.6" cy="30.4" rx="38" ry="38.1"/>
<path class="st1" d="M54.7,48.6c0.1-1.4-0.6-2.7-1.9-3.3c-2.5-1.3-5-2.4-7.6-3.4c-1.2-0.5-2.5-0.9-3.6-1.4c-0.7-0.3-1.4-0.6-2-0.9
	l-0.3-0.2v-3.5c0-0.4,0-0.8-0.1-1.2l0.4-0.4c1.3-1.5,2.3-3.3,2.9-5.2c0.2-0.6,0.4-1.2,0.6-1.8l0.2-0.1c1.5-1,2-3,1.2-4.6
	c0.5-1.8,0.9-3.5,1.2-5.3c0.5-3.6,0-8.3-3.1-11c-1.5-1.2-3.1-1.4-4.9-1.9V4.2l-0.3-0.4C36.8,3,35.9,2.4,35,2.1
	c-8.2-2.9-16.5,3.8-17.2,11.2c-0.2,2.9,0.1,5.7,0.8,8.5c-0.5,0.7-0.7,1.6-0.6,2.4c-0.1,0.8,0.1,1.5,0.5,2.2c0.4,0.8,1,1.4,1.8,1.7
	c0.7,2.3,1.6,4.5,3.5,5.7c0,0.7,0,1.4,0,2.1c0,0.9,0.1,1.8,0.2,2.7c-0.8,1.9-3.2,2.4-5.3,2.8c-2.8,0.6-5.5,1.3-8.1,2.3
	c-0.2,0.1-0.3,0.1-0.5,0.2c-1,0.1-1.8,0.6-2.4,1.4C6,46.5,5.6,49,6.8,50.7c0.3,0.4,0.6,0.7,1,1c3.5,2.4,7.9,3.7,12,5
	c4.3,1.4,8.9,2.2,13.5,2.3c4.1-0.1,7.6-1.3,11.4-2.4s7.4-1.9,9.6-5.4C54.7,50.4,54.9,49.5,54.7,48.6z"/>
<rect x="6" y="48.9" class="st0" width="48.8" height="10.8"/>
</svg>
