<svg id="Layer_1" data-name="Layer 1" xmlns="http://www.w3.org/2000/svg" viewBox="0 0 61.3 61.3"><defs><style>.cls-1{fill:#6dc7be;}.cls-2{fill:#e4dfda;}.cls-3{fill:#4281a4;}</style></defs><title>Meta</title><circle class="cls-1" cx="30.65" cy="30.65" r="30.65"/><path class="cls-2" d="M683.05,536.43a2.65,2.65,0,0,0-1.56-2.66,63.56,63.56,0,0,0-6.15-2.73c-1-.38-2-.76-2.94-1.16-.55-.23-1.1-.46-1.65-.71l-.28-.16V526.2a2.83,2.83,0,0,0-.12-1l.33-.33a13.25,13.25,0,0,0,2.36-4.15c.18-.46.35-.94.52-1.42l.14-.11a3,3,0,0,0,1-3.68,41.67,41.67,0,0,0,.94-4.3c.44-2.9,0-6.68-2.47-8.83-1.18-1-2.46-1.15-3.91-1.56v-.09l-.23-.33A4,4,0,0,0,667.1,499c-6.6-2.33-13.26,3.08-13.86,9a19.85,19.85,0,0,0,.65,6.82,3,3,0,0,0-.47,1.93,3,3,0,0,0,.38,1.77,2.81,2.81,0,0,0,1.44,1.36c.53,1.84,1.26,3.62,2.81,4.6,0,.56,0,1.12,0,1.68a15.36,15.36,0,0,0,.15,2.15c-.63,1.56-2.55,1.93-4.25,2.26a45.94,45.94,0,0,0-6.54,1.83,2.22,2.22,0,0,0-.38.18,2.85,2.85,0,0,0-1.91,1.14,3.13,3.13,0,0,0-.74,4.38,3,3,0,0,0,.8.78c2.82,1.93,6.33,3,9.63,4a35.89,35.89,0,0,0,10.93,1.83c3.32,0,6.09-1.08,9.21-1.91s5.93-1.51,7.72-4.31A2.63,2.63,0,0,0,683.05,536.43Z" transform="translate(-632.99 -491.13)"/><rect class="cls-1" x="10.75" y="45.55" width="39.36" height="8.68"/><circle class="cls-3" cx="30.65" cy="30.65" r="30.65"/><path class="cls-2" d="M684.88,516.67c-2.23-1.69-4.5,0-6.9.28a69.82,69.82,0,0,1,.67-9.69c.61-.24,1-.83.48-1.43-2.06-2.45-6.3-1.42-9-.57-1.13.36-3.51.76-3.12,2.31.15.63.86.78,1,1.34a2.13,2.13,0,0,1-.11,1.43h0a1.31,1.31,0,0,0-.27.19h0a2.35,2.35,0,0,0-.19.25h-6.18l-.19-.11c-.65-.28-.56-1.19-.53-1.75.07-.91.39-.67,1.05-1.05a1.38,1.38,0,0,0,.59-.58,1,1,0,0,0,.39-.87.87.87,0,0,0-.16-.79c-1.38-1.91-4.23-1.35-6.37-1.16a11.11,11.11,0,0,0-6.24,2.06.9.9,0,0,0-.35.86,4.22,4.22,0,0,0,.09,2.23,17.32,17.32,0,0,1,.29,4c-.15.5-.26,1-.37,1.53v.14l-.43.46a7.19,7.19,0,0,0-5.57-.4,4,4,0,0,0-2.74,4.42c.16,1.06.42,2.1.66,3.14a4.28,4.28,0,0,0,1.08,2.45,3.3,3.3,0,0,0,2.54.6c1.11-.12,2.09-.76,3.22-.63a.89.89,0,0,0,.51,0l.38.41a1.08,1.08,0,0,0,.1.27,9.24,9.24,0,0,1-.15,7.6c-.38.84.49,1.38,1.3,1.27a1.09,1.09,0,0,0,.31.18,19.94,19.94,0,0,0,6.22,1.41c1.37.08,4.33.4,4.89-1.12a1.07,1.07,0,0,0-.31-1.48,1.28,1.28,0,0,0-.51-.17,1,1,0,0,0-.61-.35l-.17-.35c-.2-.43-.66-1.12-.42-1.5s1.06-.63,1.47-.84h5.57a1.53,1.53,0,0,0,.22.16c.8.47.64,2.51,0,3.08a1.09,1.09,0,0,0,0,1.53,1,1,0,0,0,.72.31,1,1,0,0,0,.54.2,31.89,31.89,0,0,0,5.52.3c1.18,0,3.4.12,4.13-1a2.44,2.44,0,0,0,.18-1.76l-.28-2.27-.6-4.8a9,9,0,0,0,4.06.48,8.6,8.6,0,0,0,3.17-.93,3.5,3.5,0,0,0,1.87-2.72C686.77,521.09,686.94,518.25,684.88,516.67Z" transform="translate(-632.99 -491.13)"/></svg>