<?xml version="1.0" encoding="utf-8"?>
<!-- Generator: Adobe Illustrator 24.0.1, SVG Export Plug-In . SVG Version: 6.00 Build 0)  -->
<svg version="1.1" id="Timeline" xmlns="http://www.w3.org/2000/svg" xmlns:xlink="http://www.w3.org/1999/xlink" x="0px" y="0px"
	 viewBox="0 0 208.9 130.1" style="enable-background:new 0 0 208.9 130.1;" xml:space="preserve">
<style type="text/css">
	.st0{fill:#48A9A6;enable-background:new    ;}
	.st1{fill:#E4DFDA;}
	.st2{fill:none;stroke:#E4DFDA;stroke-miterlimit:10;}
	.st3{fill:none;stroke:#E4DFDA;stroke-width:2;stroke-miterlimit:10;}
	.st4{fill:none;stroke:#E4DFDA;stroke-width:3;stroke-miterlimit:10;}
</style>
<title>Education</title>
<circle class="st0" cx="119.3" cy="99.4" r="38.3"/>
<polygon class="st1" points="151.1,87.9 120,99.4 86.8,87 119.5,75.5 "/>
<line class="st2" x1="147.8" y1="104.6" x2="147.8" y2="90.9"/>
<ellipse class="st1" cx="147.8" cy="109.9" rx="3.4" ry="4.5"/>
<path class="st2" d="M101,95.2c-0.2,0.6,0,1.2,0.4,1.6c0.2,0.2,0.4,0.4,0.7,0.6c1.2,0.8,2.6,1.3,4,1.5"/>
<image style="overflow:visible;enable-background:new    ;" width="1898" height="385" xlink:href="91CAD503.png"  transform="matrix(0.1099 0 0 6.996312e-02 0 6.5521)">
</image>
<line class="st2" x1="101.1" y1="95.8" x2="119" y2="103.3"/>
<line class="st2" x1="118.6" y1="103.4" x2="137.3" y2="96.4"/>
<line class="st3" x1="101.7" y1="96.1" x2="102.1" y2="111"/>
<line class="st2" x1="137.7" y1="110.6" x2="137.5" y2="95.8"/>
<ellipse class="st1" cx="119.6" cy="110.9" rx="18.6" ry="5.9"/>
<path class="st1" d="M127.3,101.1l-0.3,0.3c-1,0.1-2,0.4-2.9,0.8c-0.9,0.4-1.5,1.2-2.4,1.6c-0.6,0.5-0.7,0.5-0.1-0.1
	c0.8-0.8,0.4-0.9-1.4-0.6c-1.9-0.5-4-0.5-5.9-1.3c-0.9-0.3-1.8-0.9-2.6-1.3l-0.3-0.1c-0.1-0.1-0.2-0.3-0.4-0.5
	c-4.3-5.2-12.8,1.5-9.3,7.2c0.2-0.9,0.2-0.9,0.3,0.1c0,0.8,0.3,1.5,0.7,2.2c0.6,1.2,1.5,2.2,2.5,3c1.8,1.6,4.3,2,6.5,0.9
	c1.6,0.5,3.2,0.8,4.7,1.1c3,0.7,6,0.9,9,0.5c1.5-0.3,2.4-1.3,3.8-1.8h0.1c0.3,0.1,0.6,0.1,0.9,0.1c2.6,0.3,5-2.1,5.7-4.3l-0.1,0.5
	C141.6,104.7,133.2,96.3,127.3,101.1z"/>
<line class="st4" x1="102.9" y1="98.5" x2="119.3" y2="104.3"/>
<line class="st4" x1="137.6" y1="98.4" x2="121.2" y2="104.4"/>
<line class="st4" x1="135.5" y1="110.3" x2="136.2" y2="99.6"/>
</svg>
